<svg xmlns="http://www.w3.org/2000/svg" version="1.0" width="941" height="148" preserveAspectRatio="xMidYMid meet" style=""><rect id="backgroundrect" width="100%" height="100%" x="0" y="0" fill="none" stroke="none"/>


<g class="currentLayer" style=""><title>Layer 1</title><g transform="translate(0,148) scale(0.10000000149011612,-0.10000000149011612) " fill="#f65261" stroke="#f65261" id="svg_1" class="" stroke-opacity="1" fill-opacity="1">
<path d="M3402 1285 c-36 -16 -49 -27 -75 -67 -21 -34 -22 -58 -1 -101 45 -93 224 -97 277 -5 24 42 21 86 -9 125 -44 58 -123 78 -192 48z" id="svg_2" stroke="#f65261" fill="#f65261"/>
<path d="M2640 1193 c-50 -18 -59 -24 -105 -71 -21 -21 -38 -54 -49 -95 -25 -87 -28 -92 -70 -95 l-36 -3 0 -89 0 -89 43 -3 42 -3 3 -207 2 -208 125 0 125 0 0 205 c0 232 -9 212 90 217 l45 3 3 78 c2 48 -2 84 -8 92 -7 8 -36 15 -68 17 -65 3 -78 22 -42 58 16 16 31 21 62 19 37 -3 41 -1 54 30 8 18 14 41 14 50 0 9 7 29 15 45 19 36 20 33 -15 51 -38 20 -170 19 -230 -2z" id="svg_3" stroke="#f65261" fill="#f65261"/>
<path d="M2950 770 l0 -440 125 0 125 0 0 440 0 440 -125 0 -125 0 0 -440z" id="svg_4" stroke="#f65261" fill="#f65261"/>
<path d="M6607 1204 c-4 -4 -7 -203 -7 -441 l0 -434 48 3 47 3 0 435 0 435 -40 3 c-23 2 -44 0 -48 -4z" id="svg_5" stroke="#f65261" fill="#f65261"/>
<path d="M1930 1037 c0 -93 -7 -107 -57 -107 l-33 0 0 -90 0 -90 29 0 c60 0 61 -3 61 -119 0 -71 5 -123 16 -153 16 -48 75 -118 99 -118 7 0 20 -6 27 -14 24 -24 241 -25 273 -2 18 13 18 15 2 49 -9 19 -17 42 -17 49 0 8 -7 29 -16 47 -14 28 -20 32 -42 26 -34 -8 -79 12 -86 38 -3 12 -6 59 -6 103 0 93 1 94 79 94 l48 0 6 77 c8 101 1 113 -67 113 -64 0 -66 3 -66 106 l0 74 -125 0 -125 0 0 -83z" id="svg_6" stroke="#f65261" fill="#f65261"/>
<path d="M7690 1027 c0 -73 -10 -87 -62 -87 -37 0 -38 -1 -38 -34 0 -34 1 -35 48 -38 l47 -3 5 -200 c6 -205 14 -249 51 -286 36 -36 76 -49 151 -49 89 0 120 18 111 63 -5 25 -9 28 -32 22 -79 -20 -108 -18 -142 13 l-34 30 0 204 0 203 85 3 c46 2 87 7 91 13 3 6 4 21 1 35 -4 23 -8 24 -81 24 -47 0 -82 5 -89 12 -7 7 -12 39 -12 75 l0 63 -50 0 -50 0 0 -63z" id="svg_7" stroke="#f65261" fill="#f65261"/>
<path d="M8170 1021 c0 -76 -4 -81 -66 -81 -32 0 -34 -2 -34 -34 0 -34 1 -35 48 -38 l47 -3 5 -200 c4 -160 8 -207 22 -235 38 -78 77 -100 180 -100 90 0 123 20 112 64 -6 24 -10 27 -33 21 -79 -20 -108 -18 -142 13 l-34 30 -3 182 c-2 99 -1 192 2 205 6 24 9 25 91 25 l85 0 0 35 0 35 -78 0 c-47 0 -83 5 -90 12 -7 7 -12 39 -12 75 l0 63 -50 0 -50 0 0 -69z" id="svg_8" stroke="#f65261" fill="#f65261"/>
<path d="M675 970 c-29 -3 -64 -15 -82 -28 -41 -29 -71 -29 -75 1 -3 21 -7 22 -120 25 l-118 3 0 -321 0 -320 125 0 125 0 0 169 c0 93 4 181 10 196 28 75 105 97 159 46 l31 -29 0 -191 0 -191 125 0 125 0 0 230 c0 212 -2 234 -20 268 -42 77 -67 106 -105 118 -11 4 -22 10 -25 14 -7 10 -97 16 -155 10z" id="svg_9" stroke="#f65261" fill="#f65261"/>
<path d="M1385 973 c-74 -7 -166 -55 -216 -112 -59 -67 -79 -119 -79 -212 0 -64 5 -89 26 -133 27 -56 85 -119 122 -130 12 -4 22 -12 22 -17 0 -5 7 -9 15 -9 9 0 30 -7 47 -16 24 -13 60 -16 150 -16 115 0 155 8 208 43 8 5 23 12 33 15 9 4 17 14 17 23 -1 18 -87 116 -110 123 -8 3 -34 -3 -58 -14 -51 -21 -83 -22 -135 -5 -37 13 -77 47 -77 66 0 18 34 21 236 21 l204 0 0 72 c0 59 -5 83 -27 126 -32 64 -110 138 -156 147 -17 4 -36 11 -42 15 -13 10 -128 18 -180 13z m114 -176 c14 -6 32 -27 42 -44 18 -32 18 -33 -1 -43 -21 -11 -168 -9 -187 3 -19 12 15 77 47 90 26 10 74 7 99 -6z" id="svg_10" stroke="#f65261" fill="#f65261"/>
<path d="M3340 650 l0 -320 125 0 125 0 0 320 0 320 -125 0 -125 0 0 -320z" id="svg_11" stroke="#f65261" fill="#f65261"/>
<path d="M3682 956 c7 -7 20 -24 28 -36 8 -12 54 -74 102 -139 79 -104 103 -153 80 -163 -8 -3 -63 -73 -164 -210 l-58 -78 140 0 c115 0 140 3 140 14 0 8 6 21 13 28 7 7 25 30 41 50 25 33 30 36 52 26 13 -6 27 -22 30 -35 4 -13 10 -23 15 -23 4 0 14 -12 21 -27 l13 -28 150 -3 149 -3 -21 23 c-12 13 -34 42 -50 64 -15 23 -38 55 -51 70 -43 55 -108 149 -115 166 -3 9 1 22 9 28 8 7 14 16 14 21 0 9 66 99 79 109 4 3 18 21 31 40 13 19 27 37 30 40 3 3 19 22 34 43 l28 37 -136 0 c-88 0 -136 -4 -136 -10 0 -6 -18 -35 -40 -64 -44 -58 -70 -64 -92 -22 -6 11 -24 38 -40 59 l-30 37 -140 0 c-118 0 -137 -2 -126 -14z" id="svg_12" stroke="#f65261" fill="#f65261"/>
<path d="M4565 941 c-3 -2 -5 -141 -5 -308 l0 -303 45 0 45 0 0 38 c1 20 5 109 10 198 11 199 23 230 105 269 30 14 60 25 69 25 35 0 46 12 46 52 l0 39 -47 -7 c-57 -8 -98 -27 -135 -61 -35 -33 -58 -25 -58 21 0 31 -3 34 -35 38 -20 2 -38 2 -40 -1z" id="svg_13" stroke="#f65261" fill="#f65261"/>
<path d="M5220 944 c-83 -17 -170 -86 -210 -168 -19 -39 -23 -64 -23 -139 0 -84 3 -97 31 -149 40 -73 61 -94 131 -129 51 -26 66 -29 158 -29 56 0 104 4 107 9 3 5 17 12 32 15 14 4 32 12 40 19 73 60 107 112 131 201 15 57 15 72 4 118 -26 108 -95 199 -176 232 -40 17 -178 29 -225 20z m155 -84 c36 -14 125 -99 125 -121 0 -10 5 -21 10 -24 18 -11 12 -128 -9 -171 -44 -88 -113 -134 -203 -134 -72 0 -123 31 -186 111 -20 27 -31 108 -22 172 10 64 30 94 104 148 32 24 49 29 97 29 32 0 69 -4 84 -10z" id="svg_14" stroke="#f65261" fill="#f65261"/>
<path d="M5793 944 c-25 -11 -14 -414 13 -479 17 -41 48 -75 94 -102 50 -31 60 -33 143 -33 93 0 109 5 169 53 46 37 68 31 68 -18 0 -34 1 -35 40 -35 l40 0 -2 308 -3 307 -40 0 -40 0 -7 -175 c-3 -96 -10 -194 -16 -217 -17 -75 -110 -143 -196 -143 -40 0 -105 26 -124 49 -41 50 -47 82 -52 286 l-5 200 -35 2 c-19 1 -41 0 -47 -3z" id="svg_15" stroke="#f65261" fill="#f65261"/>
<path d="M7140 944 c-14 -3 -39 -12 -57 -20 -17 -8 -35 -14 -39 -14 -15 0 -94 -91 -115 -133 -16 -34 -21 -62 -21 -139 0 -91 2 -101 32 -154 35 -63 68 -96 120 -119 19 -9 43 -20 52 -25 10 -6 63 -10 118 -10 87 0 107 3 155 26 31 15 62 36 70 47 13 18 12 23 -8 43 -25 27 -40 30 -59 11 -21 -21 -107 -47 -157 -47 -64 0 -130 27 -173 72 -36 37 -56 87 -43 108 4 6 91 10 239 10 282 0 277 -2 257 91 -22 109 -76 181 -178 236 -23 13 -154 24 -193 17z m160 -89 c7 -8 18 -15 24 -15 16 0 60 -48 80 -87 20 -41 20 -69 0 -77 -26 -10 -364 -7 -384 4 -39 21 8 110 91 173 31 23 170 25 189 2z" id="svg_16" stroke="#f65261" fill="#f65261"/>
<path d="M8820 944 c-14 -3 -39 -12 -57 -20 -17 -8 -34 -14 -38 -14 -4 0 -26 -20 -50 -45 -66 -67 -85 -119 -85 -229 0 -82 3 -97 31 -152 22 -43 44 -69 70 -85 21 -13 39 -27 39 -31 0 -3 13 -9 30 -13 16 -4 32 -11 35 -16 4 -5 53 -9 110 -9 114 0 173 17 221 65 24 24 25 26 7 50 -20 27 -54 32 -73 10 -15 -18 -107 -45 -157 -45 -59 0 -134 33 -170 75 -35 40 -51 91 -35 107 7 7 92 10 239 9 126 -1 236 1 246 4 11 5 17 18 17 36 0 38 -31 149 -42 149 -4 0 -8 7 -8 15 0 20 -97 115 -118 115 -10 0 -22 4 -28 10 -11 11 -145 21 -184 14z m160 -89 c7 -8 18 -15 24 -15 17 0 58 -47 81 -93 15 -29 17 -41 9 -55 -10 -15 -33 -17 -193 -20 -108 -1 -189 2 -200 8 -40 21 7 110 90 173 31 23 170 25 189 2z" id="svg_17" stroke="#f65261" fill="#f65261"/>
</g></g></svg>